# xmcd CD database file
#
# Track frame offsets:
#        150
#        16687
#        44687
#
# Disc length: 2118 seconds
#
# Revision: 0
# Processed by: cddbd v1.5.2PL0 Copyright (c) Steve Scherf et al.
# Submitted via: CUERipper 2.1.4
#
DISCID=1b084403
DTITLE=Gary Clail/On-U Sound System - Human Nature
DYEAR=1991
DGENRE=
TTITLE0=Human Nature (edit)
TTITLE1=Human Nature (album version)
TTITLE2=Data track
EXTD=
EXTT0=
EXTT1=
EXTT2=
PLAYORDER=
